<?xml version="1.0" standalone="no"?>
<!DOCTYPE svg PUBLIC "-//W3C//DTD SVG 20010904//EN"
 "http://www.w3.org/TR/2001/REC-SVG-20010904/DTD/svg10.dtd">
<svg version="1.0" xmlns="http://www.w3.org/2000/svg"
 width="500.000000pt" height="500.000000pt" viewBox="0 0 500.000000 500.000000"
 preserveAspectRatio="xMidYMid meet">
<g transform="translate(0.000000,500.000000) scale(0.100000,-0.100000)"
fill="#bb2a29" stroke="none">
<path d="M1030 4935 c-8 -2 -49 -9 -90 -15 -285 -46 -568 -221 -709 -439 -118
-184 -168 -434 -141 -716 17 -183 141 -792 176 -862 51 -106 164 -190 285
-213 73 -14 1514 -13 1594 1 112 19 163 57 344 255 90 98 202 222 250 274 48
52 107 117 131 143 24 27 64 60 89 75 l46 27 268 3 c149 2 267 -1 267 -6 0
-21 74 -92 117 -112 57 -27 150 -30 204 -7 44 18 116 81 124 108 6 19 17 19
257 17 292 -3 283 0 257 -95 -9 -32 -92 -296 -183 -588 -152 -480 -171 -533
-200 -564 -21 -21 -48 -36 -72 -40 -22 -4 -562 -9 -1201 -10 l-1161 -3 -7 21
c-10 32 -99 106 -143 119 -101 30 -208 0 -275 -78 -20 -24 -37 -47 -37 -51 0
-5 -116 -9 -257 -11 -287 -3 -296 -5 -369 -76 -53 -52 -78 -113 -77 -192 1
-57 12 -93 86 -285 47 -121 183 -469 301 -774 137 -355 227 -572 248 -602 44
-63 121 -124 188 -151 45 -19 75 -23 170 -23 111 0 118 1 185 34 131 65 140
78 419 626 137 270 257 499 267 509 12 13 32 20 54 20 22 0 42 -7 54 -20 10
-10 130 -239 267 -508 279 -547 289 -563 421 -627 65 -33 72 -34 188 -34 116
0 123 1 188 33 85 42 157 113 196 194 16 35 85 239 152 454 l122 391 42 11
c60 16 125 69 154 125 67 131 19 281 -110 346 -132 66 -278 19 -343 -111 -45
-90 -29 -216 36 -285 11 -12 18 -26 15 -30 -3 -5 -63 -189 -132 -409 -84 -264
-135 -410 -151 -432 -79 -102 -261 -102 -337 0 -13 18 -133 247 -266 508 -133
261 -255 491 -270 510 -15 19 -56 50 -90 68 -54 28 -73 32 -136 32 -63 0 -82
-4 -136 -33 -34 -17 -75 -48 -90 -67 -15 -19 -136 -249 -269 -510 -133 -261
-253 -490 -267 -508 -59 -78 -187 -101 -276 -49 -25 15 -54 39 -65 55 -21 30
-602 1523 -602 1547 0 8 9 24 20 35 19 19 33 20 243 20 l224 0 14 -26 c21 -40
93 -99 137 -112 113 -34 228 5 296 100 l27 38 1207 2 1207 3 56 26 c69 32 132
88 165 145 14 24 111 315 216 646 177 564 189 607 185 663 -7 96 -57 172 -142
218 -38 21 -55 22 -311 25 l-271 3 -31 43 c-17 24 -53 55 -84 71 -69 39 -170
42 -234 8 -40 -21 -114 -94 -114 -112 0 -6 -116 -11 -277 -13 -409 -5 -383 9
-783 -429 -157 -172 -298 -322 -313 -333 -28 -21 -36 -21 -800 -24 -837 -3
-824 -4 -875 51 -36 38 -48 83 -117 427 -60 299 -68 351 -72 485 -4 115 -1
171 12 240 76 411 476 657 997 615 340 -28 769 -174 1059 -362 l85 -55 80 49
c174 109 398 209 607 272 541 164 989 104 1256 -168 l54 -55 -22 -52 c-53
-123 -12 -262 96 -325 156 -92 345 -12 384 162 31 139 -57 274 -200 306 -51
11 -63 19 -133 93 -166 176 -390 290 -652 332 -124 19 -415 13 -549 -12 -272
-50 -608 -170 -836 -298 l-82 -46 -107 59 c-247 136 -549 243 -837 296 -81 15
-443 29 -485 19z"/>
</g>
</svg>
